<?xml version="1.0" encoding="UTF-8" standalone="no"?>
<!-- Created with Inkscape (http://www.inkscape.org/) -->

<svg
   xmlns:dc="http://purl.org/dc/elements/1.1/"
   xmlns:cc="http://creativecommons.org/ns#"
   xmlns:rdf="http://www.w3.org/1999/02/22-rdf-syntax-ns#"
   xmlns:svg="http://www.w3.org/2000/svg"
   xmlns="http://www.w3.org/2000/svg"
   xmlns:sodipodi="http://sodipodi.sourceforge.net/DTD/sodipodi-0.dtd"
   xmlns:inkscape="http://www.inkscape.org/namespaces/inkscape"
   width="744.09448819"
   height="1052.3622047"
   id="svg2"
   version="1.1"
   inkscape:version="0.48.5 r10040"
   sodipodi:docname="shufflify.svg"
   inkscape:export-filename="/home/alex/Projects/shufflify/shufflify-transparent.png"
   inkscape:export-xdpi="180.6087"
   inkscape:export-ydpi="180.6087">
  <defs
     id="defs4" />
  <sodipodi:namedview
     id="base"
     pagecolor="#121314"
     bordercolor="#666666"
     borderopacity="1.0"
     inkscape:pageopacity="0"
     inkscape:pageshadow="2"
     inkscape:zoom="1.8667619"
     inkscape:cx="153.60022"
     inkscape:cy="648.78164"
     inkscape:document-units="px"
     inkscape:current-layer="layer1"
     showgrid="false"
     inkscape:window-width="1600"
     inkscape:window-height="848"
     inkscape:window-x="-2"
     inkscape:window-y="-3"
     inkscape:window-maximized="1" />
  <metadata
     id="metadata7">
    <rdf:RDF>
      <cc:Work
         rdf:about="">
        <dc:format>image/svg+xml</dc:format>
        <dc:type
           rdf:resource="http://purl.org/dc/dcmitype/StillImage" />
        <dc:title></dc:title>
      </cc:Work>
    </rdf:RDF>
  </metadata>
  <g
     inkscape:label="Layer 1"
     inkscape:groupmode="layer"
     id="layer1">
    <g
       id="g3011"
       transform="translate(33.212591,4.2854956)"
       style="fill:#84bd00;fill-opacity:1">
      <path
         inkscape:connector-curvature="0"
         id="path3004"
         d="m 120.8146,448.71064 c -4.63345,-1.6534 -6.4589,-3.12541 -8.30646,-6.6982 -1.87372,-3.62337 -1.83159,-11.20309 0.0829,-14.90522 2.34344,-4.53172 5.72637,-5.62705 19.48307,-6.30826 14.12595,-0.6995 24.20453,-3.08773 33.49288,-7.93653 7.00163,-3.65506 18.80744,-15.05964 25.91884,-25.03797 2.67152,-3.74852 5.21494,-6.44852 5.65206,-6 0.43712,0.44852 4.39276,5.97078 8.79032,12.27169 5.77828,8.27925 7.76177,11.88432 7.15254,13 -1.98188,3.62936 -15.48534,17.19578 -22.2087,22.31225 -14.00829,10.6603 -28.21063,16.71889 -45.29794,19.3237 -11.27542,1.71885 -19.90342,1.71137 -24.75947,-0.0215 z"
         style="fill:#84bd00;fill-opacity:1"
         sodipodi:nodetypes="csssssssssscc" />
    </g>
    <path
       inkscape:connector-curvature="0"
       id="path3004-3"
       d="m 272.93723,367.85732 c -0.41843,-0.6875 -4.06197,-6.34295 -8.09675,-12.56766 0,0 -7.76957,-6.84287 -7.33598,-11.31767 0.33715,-3.47949 7.28773,-7.54148 7.28773,-7.54148 8.86363,-9.17223 17.15313,-15.23606 27.12958,-19.84546 7.89029,-3.64555 21.88018,-7.45881 27.40816,-7.47072 1.7875,-0.004 3.25,-0.2584 3.25,-0.56565 0,-0.30725 -1.30719,-2.21975 -2.90487,-4.25 -5.63622,-7.16223 -4.94906,-14.38028 1.96353,-20.62539 3.36373,-3.03893 4.65278,-3.56597 8.72171,-3.56597 2.62604,0 5.69574,0.64518 6.82155,1.43373 3.27921,2.29684 29.71929,31.3826 31.70879,34.88166 2.64922,4.65936 1.75817,10.53082 -2.40958,15.87748 -1.84658,2.36892 -8.42282,10.44819 -14.61386,17.95393 -13.66296,16.56438 -16.62804,18.15159 -25.9786,13.9064 -8.21683,-3.73047 -10.31912,-13.33796 -4.72303,-21.58427 1.3279,-1.95676 2.41436,-3.80232 2.41436,-4.10124 0,-0.88479 -8.03652,0.61987 -14.60856,2.73514 -10.4758,3.37173 -21.58689,11.87912 -30.1079,23.05261 -3.90532,5.12099 -4.70285,5.60473 -5.92628,3.59456 z"
       style="fill:#84bd00;fill-opacity:1"
       sodipodi:nodetypes="ssssscssssssssssssss" />
    <path
       inkscape:connector-curvature="0"
       id="path3004-4"
       d="m 323.83246,472.12652 c -5.43834,-3.7013 -7.49929,-7.26159 -7.41705,-12.81293 0.0592,-3.99265 0.68653,-5.67627 3.35039,-8.99109 1.80268,-2.2432 3.11993,-4.2082 2.92722,-4.36667 -0.19272,-0.15847 -3.95039,-0.84757 -8.35039,-1.53134 -22.64434,-3.51895 -40.47738,-14.71683 -58.20398,-36.54797 -2.23296,-2.75 -11.25556,-15.8 -20.05021,-29 -12.77873,-19.17977 -17.57246,-25.50677 -23.86804,-31.50224 -12.98108,-12.36228 -24.34391,-16.77916 -45.37777,-17.63892 -14.47962,-0.59187 -17.24438,-1.40016 -19.99115,-5.84453 -4.50872,-7.29527 -1.56385,-17.95697 6.01109,-21.76276 5.58069,-2.80383 24.19153,-1.93122 38.54446,1.80724 8.05614,2.09836 22.94007,9.27984 30.06531,14.50648 14.75216,10.82128 23.68552,21.28663 42.62493,49.93473 17.0701,25.82055 26.14158,35.7203 38.24536,41.73734 5.0127,2.49192 12.69692,4.92342 18.29694,5.78965 l 4.29694,0.66467 -3.02283,-4.34583 c -5.48219,-7.88159 -4.66944,-16.20105 2.06471,-21.13471 3.67166,-2.68997 10.74858,-3.33941 14.61305,-1.34102 2.62326,1.35654 19.44211,20.64782 28.63328,32.84246 3.62381,4.80799 4.39994,10.37449 2.07371,14.87291 -2.35216,4.54859 -29.84454,34.31499 -33.03688,35.76952 -3.92552,1.78859 -8.81642,1.35377 -12.42909,-1.10499 z"
       style="fill:#ffffff;fill-opacity:1;stroke:none;stroke-opacity:1"
       sodipodi:nodetypes="scscsssssssssssscsssssss" />
    <rect
       style="fill:none;stroke:none;stroke-width:0.86282669999999995;stroke-opacity:1"
       id="rect3826"
       width="255.13718"
       height="255.13718"
       x="129.56766"
       y="250.3219" />
  </g>
</svg>
